<svg width="206" height="314" viewBox="0 0 206 314" fill="none" xmlns="http://www.w3.org/2000/svg">
<path d="M9.944 39V11.544H2.948V8.2H20.768V11.544H13.772V39H9.944ZM35.3777 39C32.7964 39 30.9044 38.4573 29.7017 37.372C28.4991 36.2573 27.8977 34.4533 27.8977 31.96V24.04C27.8977 21.5173 28.4404 19.7133 29.5257 18.628C30.6111 17.5427 32.4151 17 34.9377 17H37.0057C39.0884 17 40.6577 17.5867 41.7137 18.76C42.7991 19.904 43.3417 21.5907 43.3417 23.82V29.54H31.6377V32.84C31.6377 33.7493 31.9164 34.4533 32.4737 34.952C33.0311 35.4507 33.8524 35.7 34.9377 35.7H41.9337V39H35.3777ZM39.6897 22.94C39.6897 22.1773 39.4404 21.5467 38.9417 21.048C38.4431 20.5493 37.8124 20.3 37.0497 20.3H34.4977C33.4417 20.3 32.6937 20.5493 32.2537 21.048C31.8431 21.5173 31.6377 22.2213 31.6377 23.16V26.24H39.6897V22.94ZM60.2834 39C57.7021 39 55.8101 38.4573 54.6074 37.372C53.4048 36.2573 52.8034 34.4533 52.8034 31.96V24.04C52.8034 21.576 53.4048 19.7867 54.6074 18.672C55.8394 17.5573 57.7314 17 60.2834 17H65.9594V20.3H59.8434C58.7581 20.3 57.9368 20.5493 57.3794 21.048C56.8221 21.5467 56.5434 22.2507 56.5434 23.16V32.84C56.5434 33.7493 56.8221 34.4533 57.3794 34.952C57.9368 35.4507 58.7581 35.7 59.8434 35.7H65.9594V39H60.2834ZM78.8532 8.2V17.88C79.7332 17.2933 80.8332 17 82.1532 17H84.1772C86.5532 17 88.3132 17.5573 89.4572 18.672C90.6305 19.7867 91.2172 21.576 91.2172 24.04V39H87.4772V23.16C87.4772 22.28 87.2132 21.5907 86.6852 21.092C86.1865 20.564 85.4972 20.3 84.6172 20.3H81.7132C80.7745 20.3 80.0705 20.5493 79.6012 21.048C79.1318 21.5173 78.8825 22.0307 78.8532 22.588V39H75.1132V8.2H78.8532ZM20.02 82.048C20.02 84.5707 19.4333 86.36 18.26 87.416C17.116 88.472 15.2093 89 12.54 89H3.74V58.2H12.012C14.6227 58.2 16.5293 58.728 17.732 59.784C18.964 60.84 19.58 62.6 19.58 65.064V67.572C19.58 69.8307 18.7733 71.532 17.16 72.676C19.0667 73.732 20.02 75.536 20.02 78.088V82.048ZM15.752 64.668C15.752 63.5533 15.488 62.7467 14.96 62.248C14.4613 61.7493 13.6547 61.5 12.54 61.5H7.568V71.224H12.54C13.4493 71.224 14.212 70.9307 14.828 70.344C15.444 69.7573 15.752 68.98 15.752 68.012V64.668ZM16.192 77.692C16.192 76.724 15.8987 75.9613 15.312 75.404C14.7253 74.8173 13.948 74.524 12.98 74.524H7.568V85.7H12.936C14.0507 85.7 14.872 85.4507 15.4 84.952C15.928 84.424 16.192 83.6027 16.192 82.488V77.692ZM39.9097 87.988C38.9417 88.6627 37.7684 89 36.3897 89H34.8937C32.5177 89 30.7431 88.4427 29.5697 87.328C28.4257 86.2133 27.8537 84.424 27.8537 81.96V67H31.5937V82.84C31.5937 83.72 31.8431 84.424 32.3417 84.952C32.8697 85.4507 33.5737 85.7 34.4537 85.7H36.8297C37.7684 85.7 38.4577 85.4653 38.8977 84.996C39.3671 84.5267 39.6311 83.9987 39.6897 83.412V67H43.4297V89H39.9097V87.988ZM66.1794 89H52.1874V85.48L62.4834 70.256H53.0674V67H66.6194V70.916L56.4114 85.744H66.1794V89ZM89.9412 89H75.9492V85.48L86.2452 70.256H76.8292V67H90.3812V70.916L80.1732 85.744H89.9412V89Z" fill="#090A0F"/>
<path d="M50.7045 163.454C48.8419 163.454 47.0557 162.714 45.7387 161.397C44.4217 160.08 43.6818 158.294 43.6818 156.432V137.704C43.6818 135.842 44.4217 134.056 45.7387 132.739C47.0557 131.422 48.8419 130.682 50.7045 130.682C51.3253 130.682 51.9207 130.435 52.3597 129.996C52.7987 129.557 53.0454 128.962 53.0454 128.341C53.0454 127.72 52.7987 127.125 52.3597 126.686C51.9207 126.247 51.3253 126 50.7045 126C47.6003 126 44.6232 127.233 42.4282 129.428C40.2331 131.623 39 134.6 39 137.704V156.432C39 159.536 40.2331 162.513 42.4282 164.708C44.6232 166.903 47.6003 168.136 50.7045 168.136C51.3253 168.136 51.9207 167.889 52.3597 167.45C52.7987 167.011 53.0454 166.416 53.0454 165.795C53.0454 165.174 52.7987 164.579 52.3597 164.14C51.9207 163.701 51.3253 163.454 50.7045 163.454ZM68.7528 155.753C68.9722 155.535 69.1463 155.276 69.2652 154.991C69.384 154.706 69.4452 154.4 69.4452 154.091C69.4452 153.782 69.384 153.476 69.2652 153.19C69.1463 152.905 68.9722 152.646 68.7528 152.429L63.3687 147.068L68.7528 141.707C69.1936 141.267 69.4412 140.669 69.4412 140.045C69.4412 139.422 69.1936 138.824 68.7528 138.383C68.312 137.943 67.7141 137.695 67.0907 137.695C66.4674 137.695 65.8695 137.943 65.4287 138.383L60.0681 143.767L54.7074 138.383C54.2666 137.943 53.6688 137.695 53.0454 137.695C52.422 137.695 51.8241 137.943 51.3833 138.383C50.9425 138.824 50.6949 139.422 50.6949 140.045C50.6949 140.669 50.9425 141.267 51.3833 141.707L56.7674 147.068L51.3833 152.429C51.1639 152.646 50.9898 152.905 50.8709 153.19C50.7521 153.476 50.6909 153.782 50.6909 154.091C50.6909 154.4 50.7521 154.706 50.8709 154.991C50.9898 155.276 51.1639 155.535 51.3833 155.753C51.601 155.972 51.8599 156.146 52.1451 156.265C52.4304 156.384 52.7363 156.445 53.0454 156.445C53.3544 156.445 53.6604 156.384 53.9456 156.265C54.2309 156.146 54.4898 155.972 54.7074 155.753L60.0681 150.369L65.4287 155.753C65.6463 155.972 65.9052 156.146 66.1905 156.265C66.4757 156.384 66.7817 156.445 67.0907 156.445C67.3998 156.445 67.7057 156.384 67.991 156.265C68.2763 156.146 68.5352 155.972 68.7528 155.753ZM69.4316 126C68.8108 126 68.2154 126.247 67.7764 126.686C67.3374 127.125 67.0907 127.72 67.0907 128.341C67.0907 128.962 67.3374 129.557 67.7764 129.996C68.2154 130.435 68.8108 130.682 69.4316 130.682C71.2942 130.682 73.0804 131.422 74.3974 132.739C75.7144 134.056 76.4543 135.842 76.4543 137.704V156.432C76.4543 158.294 75.7144 160.08 74.3974 161.397C73.0804 162.714 71.2942 163.454 69.4316 163.454C68.8108 163.454 68.2154 163.701 67.7764 164.14C67.3374 164.579 67.0907 165.174 67.0907 165.795C67.0907 166.416 67.3374 167.011 67.7764 167.45C68.2154 167.889 68.8108 168.136 69.4316 168.136C72.5359 168.136 75.5129 166.903 77.708 164.708C79.903 162.513 81.1361 159.536 81.1361 156.432V137.704C81.1361 134.6 79.903 131.623 77.708 129.428C75.5129 127.233 72.5359 126 69.4316 126Z" fill="#090A0F"/>
<path d="M59.2314 219.368C59.2314 218.259 59.4714 217.272 59.9514 216.408C60.4314 215.533 61.098 214.856 61.9514 214.376C62.8154 213.885 63.7914 213.64 64.8794 213.64C66.2127 213.64 67.354 213.992 68.3034 214.696C69.2527 215.4 69.8874 216.36 70.2074 217.576H67.1994C66.9754 217.107 66.6554 216.749 66.2394 216.504C65.834 216.259 65.37 216.136 64.8474 216.136C64.0047 216.136 63.322 216.429 62.7994 217.016C62.2767 217.603 62.0154 218.387 62.0154 219.368C62.0154 220.349 62.2767 221.133 62.7994 221.72C63.322 222.307 64.0047 222.6 64.8474 222.6C65.37 222.6 65.834 222.477 66.2394 222.232C66.6554 221.987 66.9754 221.629 67.1994 221.16H70.2074C69.8874 222.376 69.2527 223.336 68.3034 224.04C67.354 224.733 66.2127 225.08 64.8794 225.08C63.7914 225.08 62.8154 224.84 61.9514 224.36C61.098 223.869 60.4314 223.192 59.9514 222.328C59.4714 221.464 59.2314 220.477 59.2314 219.368ZM74.6189 222.888H78.2029V225H71.8829V213.768H74.6189V222.888ZM84.8199 225.112C83.7639 225.112 82.7932 224.867 81.9079 224.376C81.0332 223.885 80.3345 223.203 79.8119 222.328C79.2999 221.443 79.0439 220.451 79.0439 219.352C79.0439 218.253 79.2999 217.267 79.8119 216.392C80.3345 215.517 81.0332 214.835 81.9079 214.344C82.7932 213.853 83.7639 213.608 84.8199 213.608C85.8759 213.608 86.8412 213.853 87.7159 214.344C88.6012 214.835 89.2945 215.517 89.7959 216.392C90.3079 217.267 90.5639 218.253 90.5639 219.352C90.5639 220.451 90.3079 221.443 89.7959 222.328C89.2839 223.203 88.5905 223.885 87.7159 224.376C86.8412 224.867 85.8759 225.112 84.8199 225.112ZM84.8199 222.616C85.7159 222.616 86.4305 222.317 86.9639 221.72C87.5079 221.123 87.7799 220.333 87.7799 219.352C87.7799 218.36 87.5079 217.571 86.9639 216.984C86.4305 216.387 85.7159 216.088 84.8199 216.088C83.9132 216.088 83.1879 216.381 82.6439 216.968C82.1105 217.555 81.8439 218.349 81.8439 219.352C81.8439 220.344 82.1105 221.139 82.6439 221.736C83.1879 222.323 83.9132 222.616 84.8199 222.616ZM94.774 213.768V220.488C94.774 221.16 94.9393 221.677 95.27 222.04C95.6007 222.403 96.086 222.584 96.726 222.584C97.366 222.584 97.8567 222.403 98.198 222.04C98.5393 221.677 98.71 221.16 98.71 220.488V213.768H101.446V220.472C101.446 221.475 101.233 222.323 100.806 223.016C100.379 223.709 99.8033 224.232 99.078 224.584C98.3633 224.936 97.5633 225.112 96.678 225.112C95.7927 225.112 94.998 224.941 94.294 224.6C93.6007 224.248 93.0513 223.725 92.646 223.032C92.2407 222.328 92.038 221.475 92.038 220.472V213.768H94.774ZM107.575 213.768C108.759 213.768 109.794 214.003 110.679 214.472C111.565 214.941 112.247 215.603 112.727 216.456C113.218 217.299 113.463 218.275 113.463 219.384C113.463 220.483 113.218 221.459 112.727 222.312C112.247 223.165 111.559 223.827 110.663 224.296C109.778 224.765 108.749 225 107.575 225H103.367V213.768H107.575ZM107.399 222.632C108.434 222.632 109.239 222.349 109.815 221.784C110.391 221.219 110.679 220.419 110.679 219.384C110.679 218.349 110.391 217.544 109.815 216.968C109.239 216.392 108.434 216.104 107.399 216.104H106.103V222.632H107.399ZM59.2314 243.368C59.2314 242.259 59.4714 241.272 59.9514 240.408C60.4314 239.533 61.098 238.856 61.9514 238.376C62.8154 237.885 63.7914 237.64 64.8794 237.64C66.2127 237.64 67.354 237.992 68.3034 238.696C69.2527 239.4 69.8874 240.36 70.2074 241.576H67.1994C66.9754 241.107 66.6554 240.749 66.2394 240.504C65.834 240.259 65.37 240.136 64.8474 240.136C64.0047 240.136 63.322 240.429 62.7994 241.016C62.2767 241.603 62.0154 242.387 62.0154 243.368C62.0154 244.349 62.2767 245.133 62.7994 245.72C63.322 246.307 64.0047 246.6 64.8474 246.6C65.37 246.6 65.834 246.477 66.2394 246.232C66.6554 245.987 66.9754 245.629 67.1994 245.16H70.2074C69.8874 246.376 69.2527 247.336 68.3034 248.04C67.354 248.733 66.2127 249.08 64.8794 249.08C63.7914 249.08 62.8154 248.84 61.9514 248.36C61.098 247.869 60.4314 247.192 59.9514 246.328C59.4714 245.464 59.2314 244.477 59.2314 243.368ZM77.1949 249.112C76.1389 249.112 75.1682 248.867 74.2829 248.376C73.4082 247.885 72.7095 247.203 72.1869 246.328C71.6749 245.443 71.4189 244.451 71.4189 243.352C71.4189 242.253 71.6749 241.267 72.1869 240.392C72.7095 239.517 73.4082 238.835 74.2829 238.344C75.1682 237.853 76.1389 237.608 77.1949 237.608C78.2509 237.608 79.2162 237.853 80.0909 238.344C80.9762 238.835 81.6695 239.517 82.1709 240.392C82.6829 241.267 82.9389 242.253 82.9389 243.352C82.9389 244.451 82.6829 245.443 82.1709 246.328C81.6589 247.203 80.9655 247.885 80.0909 248.376C79.2162 248.867 78.2509 249.112 77.1949 249.112ZM77.1949 246.616C78.0909 246.616 78.8055 246.317 79.3389 245.72C79.8829 245.123 80.1549 244.333 80.1549 243.352C80.1549 242.36 79.8829 241.571 79.3389 240.984C78.8055 240.387 78.0909 240.088 77.1949 240.088C76.2882 240.088 75.5629 240.381 75.0189 240.968C74.4855 241.555 74.2189 242.349 74.2189 243.352C74.2189 244.344 74.4855 245.139 75.0189 245.736C75.5629 246.323 76.2882 246.616 77.1949 246.616ZM97.181 237.768V249H94.445V242.264L91.933 249H89.725L87.197 242.248V249H84.461V237.768H87.693L90.845 245.544L93.965 237.768H97.181ZM107.708 241.384C107.708 242.035 107.559 242.632 107.26 243.176C106.962 243.709 106.503 244.141 105.884 244.472C105.266 244.803 104.498 244.968 103.58 244.968H101.884V249H99.1485V237.768H103.58C104.476 237.768 105.234 237.923 105.852 238.232C106.471 238.541 106.935 238.968 107.244 239.512C107.554 240.056 107.708 240.68 107.708 241.384ZM103.372 242.792C103.895 242.792 104.284 242.669 104.54 242.424C104.796 242.179 104.924 241.832 104.924 241.384C104.924 240.936 104.796 240.589 104.54 240.344C104.284 240.099 103.895 239.976 103.372 239.976H101.884V242.792H103.372ZM111.821 237.768V244.488C111.821 245.16 111.986 245.677 112.317 246.04C112.648 246.403 113.133 246.584 113.773 246.584C114.413 246.584 114.904 246.403 115.245 246.04C115.586 245.677 115.757 245.16 115.757 244.488V237.768H118.493V244.472C118.493 245.475 118.28 246.323 117.853 247.016C117.426 247.709 116.85 248.232 116.125 248.584C115.41 248.936 114.61 249.112 113.725 249.112C112.84 249.112 112.045 248.941 111.341 248.6C110.648 248.248 110.098 247.725 109.693 247.032C109.288 246.328 109.085 245.475 109.085 244.472V237.768H111.821ZM128.494 237.768V239.96H125.518V249H122.782V239.96H119.806V237.768H128.494ZM132.603 237.768V249H129.867V237.768H132.603ZM144.634 249H141.898L137.322 242.072V249H134.586V237.768H137.322L141.898 244.728V237.768H144.634V249ZM154.073 241.32C153.871 240.947 153.577 240.664 153.193 240.472C152.82 240.269 152.377 240.168 151.865 240.168C150.98 240.168 150.271 240.461 149.737 241.048C149.204 241.624 148.937 242.397 148.937 243.368C148.937 244.403 149.215 245.213 149.769 245.8C150.335 246.376 151.108 246.664 152.089 246.664C152.761 246.664 153.327 246.493 153.785 246.152C154.255 245.811 154.596 245.32 154.809 244.68H151.337V242.664H157.289V245.208C157.087 245.891 156.74 246.525 156.249 247.112C155.769 247.699 155.156 248.173 154.409 248.536C153.663 248.899 152.82 249.08 151.881 249.08C150.772 249.08 149.78 248.84 148.905 248.36C148.041 247.869 147.364 247.192 146.873 246.328C146.393 245.464 146.153 244.477 146.153 243.368C146.153 242.259 146.393 241.272 146.873 240.408C147.364 239.533 148.041 238.856 148.905 238.376C149.769 237.885 150.756 237.64 151.865 237.64C153.209 237.64 154.34 237.965 155.257 238.616C156.185 239.267 156.799 240.168 157.097 241.32H154.073ZM59.2314 267.368C59.2314 266.259 59.4714 265.272 59.9514 264.408C60.4314 263.533 61.098 262.856 61.9514 262.376C62.8154 261.885 63.7914 261.64 64.8794 261.64C66.2127 261.64 67.354 261.992 68.3034 262.696C69.2527 263.4 69.8874 264.36 70.2074 265.576H67.1994C66.9754 265.107 66.6554 264.749 66.2394 264.504C65.834 264.259 65.37 264.136 64.8474 264.136C64.0047 264.136 63.322 264.429 62.7994 265.016C62.2767 265.603 62.0154 266.387 62.0154 267.368C62.0154 268.349 62.2767 269.133 62.7994 269.72C63.322 270.307 64.0047 270.6 64.8474 270.6C65.37 270.6 65.834 270.477 66.2394 270.232C66.6554 269.987 66.9754 269.629 67.1994 269.16H70.2074C69.8874 270.376 69.2527 271.336 68.3034 272.04C67.354 272.733 66.2127 273.08 64.8794 273.08C63.7914 273.08 62.8154 272.84 61.9514 272.36C61.098 271.869 60.4314 271.192 59.9514 270.328C59.4714 269.464 59.2314 268.477 59.2314 267.368ZM74.6189 263.96V266.232H78.2829V268.344H74.6189V270.808H78.7629V273H71.8829V261.768H78.7629V263.96H74.6189ZM83.2751 270.888H86.8591V273H80.5391V261.768H83.2751V270.888ZM90.9001 270.888H94.4841V273H88.1641V261.768H90.9001V270.888Z" fill="#090A0F"/>
</svg>
